<svg xmlns="http://www.w3.org/2000/svg" width="20" height="12.835" viewBox="0 0 20 12.835">
  <g id="arrow-right" transform="translate(26.5 22.958) rotate(180)">
    <path id="Path_2369" data-name="Path 2369" d="M22.768,10.393a.917.917,0,0,1,1.3,0l5.5,5.5a.917.917,0,0,1,0,1.3l-5.5,5.5a.918.918,0,1,1-1.3-1.3l4.852-4.851L22.767,11.69a.917.917,0,0,1,0-1.3Z" transform="translate(-3.334 0)" fill="#222" fill-rule="evenodd"/>
    <path id="Path_2370" data-name="Path 2370" d="M4.5,17.792a.876.876,0,0,1,.83-.917H22.75a.921.921,0,0,1,0,1.833H5.33A.876.876,0,0,1,4.5,17.792Z" transform="translate(2 -1.251)" fill="#222" fill-rule="evenodd"/>
  </g>
</svg>
