<svg id="Group_12576" data-name="Group 12576" xmlns="http://www.w3.org/2000/svg" xmlns:xlink="http://www.w3.org/1999/xlink" width="24" height="20" viewBox="0 0 24 20">
  <defs>
    <clipPath id="clip-path">
      <rect id="Rectangle_2613" data-name="Rectangle 2613" width="24" height="20" fill="#fff"/>
    </clipPath>
  </defs>
  <g id="Group_12575" data-name="Group 12575" clip-path="url(#clip-path)">
    <path id="Path_2138" data-name="Path 2138" d="M254.64,0c0,.215,0,.4,0,.576,0,.148-.013.3-.022.476H243.934V0Z" transform="translate(-230.641)" fill="#fff"/>
    <rect id="Rectangle_2612" data-name="Rectangle 2612" width="6.309" height="1.073" transform="translate(13.29 2.997)" fill="#fff"/>
    <path id="Path_2139" data-name="Path 2139" d="M11.9,91.709v4.852H3.96l-.219-3.934H2.976v3.924H.05a3.559,3.559,0,0,1-.038-.374c0-1.239-.031-2.48.011-3.718A8.589,8.589,0,0,1,.3,90.483a4.6,4.6,0,0,1,3.329-3.276,9.434,9.434,0,0,1,2.69-.371c.812-.011,1.624-.009,2.436,0a15.751,15.751,0,0,0,7.143-1.757c1.08-.533,2.129-1.133,3.2-1.691.351-.183.72-.328,1.185-.537.1-.281.252-.684.4-1.087a.764.764,0,1,1,1.461.446,11.761,11.761,0,0,1-.388,1.131.547.547,0,0,0,.034.558,2.171,2.171,0,0,1-.58,2.953,29.157,29.157,0,0,1-5.255,3.158c-1.237.57-2.509,1.057-3.765,1.581l-.289.12" transform="translate(0 -76.561)" fill="#fff"/>
    <path id="Path_2140" data-name="Path 2140" d="M59.795,15.838a4.024,4.024,0,1,1-8.039-.051,4.026,4.026,0,1,1,8.039.051" transform="translate(-48.935 -10.903)" fill="#fff"/>
  </g>
</svg>
