<svg xmlns="http://www.w3.org/2000/svg" width="140" height="68" viewBox="0 0 140 68">
  <g id="Group_12562" data-name="Group 12562" transform="translate(0 0)">
    <g id="Group_91" data-name="Group 91" transform="translate(30.5)">
      <path id="Path_4" data-name="Path 4" d="M410.281,1127.026H378.856a13.262,13.262,0,0,1-11.371-13.163,13.287,13.287,0,0,1,8.132-12.2,11.614,11.614,0,0,1,11.026-7.58,23.1,23.1,0,0,1,36.111-6.685,23.622,23.622,0,0,1,7.443,16.826,22.85,22.85,0,0,1-19.916,22.8Z" transform="translate(-367.485 -1081.425)" fill="#386cb5"/>
      <path id="Path_5" data-name="Path 5" d="M570.279,1155.874h17.5a14.768,14.768,0,0,0,12.611-14.817,14.825,14.825,0,0,0-2.067-7.856,15.082,15.082,0,0,0-7.994-6.41,7.649,7.649,0,0,0-8.821-7.305c.692,1.033,6.825,10.546,2.826,21.847A25.254,25.254,0,0,1,570.279,1155.874Z" transform="translate(-520.988 -1110.273)" fill="#386cb5"/>
      <g id="Group_90" data-name="Group 90" transform="translate(21.584 6.025)">
        <path id="Path_6" data-name="Path 6" d="M457.24,1124.556c-1.1-13.831,18.718-24.748,30.3-13.289,3.432,2.935-1.024,7.712-4.279,4.694-6.881-5.915-17.042-2.855-19.251,5.8-3.147,12.02,13.1,19.727,20.577,9.947a3.123,3.123,0,0,1,4.424-.151,3.178,3.178,0,0,1,.248,4.439C479.084,1149.086,457.027,1141.034,457.24,1124.556Z" transform="translate(-457.197 -1106.468)" fill="#fff"/>
        <g id="Group_89" data-name="Group 89" transform="translate(11.373 13.841)">
          <path id="Path_7" data-name="Path 7" d="M521.293,1163.994a2.872,2.872,0,1,1-.1,5.743,2.874,2.874,0,1,1,.1-5.743Z" transform="translate(-514.93 -1163.994)" fill="#fff"/>
          <rect id="Rectangle_43" data-name="Rectangle 43" width="10.04" height="2.919" rx="1.459" transform="translate(10.228 1.474)" fill="#fff"/>
          <path id="Path_1900" data-name="Path 1900" d="M1.456,0h2.31A1.459,1.459,0,0,1,5.226,1.456h0A1.459,1.459,0,0,1,3.767,2.916H1.456A1.459,1.459,0,1,1,1.456,0Z" transform="translate(0 9.933) rotate(-60)" fill="#fff"/>
        </g>
      </g>
    </g>
    <g id="Group_92" data-name="Group 92" transform="translate(0 53.001)">
      <path id="Path_8" data-name="Path 8" d="M299.536,1307.422a5.4,5.4,0,0,1,1.814-.919c2.915-.5,4.728,1.017,4.739,4,.005,1.4.011,2.8,0,4.2,0,.454.036.8.627.731.52-.063.561.266.566.675.006.455-.236.527-.6.524-1-.008-2,0-3,0-.349,0-.633-.04-.634-.5,0-.4.023-.751.551-.7.594.061.626-.3.623-.743-.012-1.522.019-3.044-.013-4.565a1.821,1.821,0,0,0-1.972-2.052,2.418,2.418,0,0,0-2.672,2.027c-.06,1.559-.008,3.123-.022,4.684,0,.44.131.678.612.65.552-.031.5.367.5.736,0,.485-.341.458-.663.458-.961,0-1.921,0-2.881,0-.344,0-.643-.014-.621-.492.017-.367-.043-.768.521-.705.666.074.669-.341.668-.824q-.014-5.225,0-10.45c0-.563-.083-.946-.759-.9-.4.025-.417-.256-.431-.559-.018-.378.174-.494.508-.479a.838.838,0,0,0,.12,0c2.422-.233,2.422-.233,2.422,2.2Z" transform="translate(-283.228 -1301.911)" fill="#386cb5"/>
      <path id="Path_9" data-name="Path 9" d="M253.28,1306.965a7.15,7.15,0,0,1-.006.84c-.049.414.255,1.06-.584,1.017-.534-.027-1.27.279-1.183-.775.046-.557-.511-.67-.884-.853a5.23,5.23,0,0,0-6.288,1.4,5.729,5.729,0,0,0,.425,7,5.407,5.407,0,0,0,6.743.479c.514-.345.808-.628,1.3.109s.318,1.046-.354,1.458c-2.662,1.632-6.823,1.335-8.975-.685a7.409,7.409,0,0,1-1.1-8.861,6.826,6.826,0,0,1,8.139-2.89c.413.144.713.386,1.324.021C252.857,1304.614,253.28,1305.176,253.28,1306.965Z" transform="translate(-241.393 -1303.956)" fill="#386cb5"/>
      <path id="Path_10" data-name="Path 10" d="M430.672,1325.62c0,.72.014,1.441,0,2.161-.014.55-.052,1.046.766.978.481-.04.39.394.4.7.013.367-.2.478-.528.477q-1.5-.006-3,0c-.381,0-.715.007-.706-.542.007-.428.086-.718.587-.658.608.072.61-.314.607-.748-.01-1.48.012-2.962-.009-4.442-.02-1.444-.664-2.128-1.984-2.17a2.513,2.513,0,0,0-2.727,2.137c-.054,1.519-.006,3.041-.018,4.562,0,.431.108.708.6.658.515-.053.571.248.578.666.009.547-.33.539-.709.537-.96-.005-1.92-.012-2.88,0-.388.005-.6-.115-.579-.542.018-.323-.033-.7.456-.651.742.072.721-.4.718-.912q-.016-2.882,0-5.762c0-.53-.024-.975-.728-.948-.382.015-.439-.252-.441-.562s.109-.627.455-.539c.842.215,1.875-.6,2.562.5.188.3.4-.044.576-.147,3.091-1.777,5.991-.116,6.005,3.442C430.675,1324.42,430.672,1325.02,430.672,1325.62Z" transform="translate(-377.838 -1315.219)" fill="#386cb5"/>
      <path id="Path_11" data-name="Path 11" d="M500.46,1321.977c0,.28,0,.56,0,.839s0,.6-.394.612c-.3.007-.6.125-.883-.168a3.224,3.224,0,0,0-4.693-.308,3.482,3.482,0,0,0-.506,4.663,3.572,3.572,0,0,0,4.822.814c.841-.572,1.139-.083,1.507.4.521.685-.279.8-.572,1.009a5.205,5.205,0,0,1-7.516-6.8,5.264,5.264,0,0,1,5.821-2.552,2.851,2.851,0,0,0,.92.228C500.464,1320.531,500.461,1320.512,500.46,1321.977Z" transform="translate(-431.409 -1315.737)" fill="#386cb5"/>
      <path id="Path_12" data-name="Path 12" d="M538.143,1308.808c0,1.879.008,3.757,0,5.636,0,.547-.055,1.047.763.98.482-.041.394.39.406.7.014.365-.19.484-.522.483q-1.617-.007-3.235,0c-.367,0-.484-.189-.47-.526.013-.321-.043-.714.443-.661.843.093.742-.462.741-.983q-.005-5.1,0-10.193c0-.529.089-1.084-.739-1.015-.378.032-.435-.24-.445-.553-.012-.375.184-.489.513-.481a1.06,1.06,0,0,0,.12,0c2.43-.248,2.43-.248,2.43,2.182Z" transform="translate(-464.418 -1301.884)" fill="#386cb5"/>
      <path id="Path_13" data-name="Path 13" d="M349.789,1321.218a4.026,4.026,0,0,1,2.662-1.192c.428-.032,1.04-.226,1,.6-.025.557.224,1.247-.8,1.178a3.518,3.518,0,0,0-1.72.46,2.052,2.052,0,0,0-1.325,2.073c.043,1.079-.014,2.161.018,3.24.019.626-.368,1.523.891,1.463.373-.018.253.421.27.68.026.377-.208.469-.529.469-1.04,0-2.079-.006-3.119,0-.383,0-.606-.108-.588-.543.014-.336,0-.7.468-.648.74.077.721-.377.717-.894q-.02-2.94,0-5.881c0-.487-.023-.885-.674-.845-.435.028-.517-.261-.505-.631s.2-.494.529-.494c.68,0,1.36.018,2.039-.006C349.833,1320.221,349.453,1320.921,349.789,1321.218Z" transform="translate(-321.248 -1315.465)" fill="#386cb5"/>
      <path id="Path_14" data-name="Path 14" d="M636.731,1316.057a1.3,1.3,0,0,1-.579,1.591c-1.921,1.581-6.1,1.661-8.394.14a7.125,7.125,0,0,1-2.653-7.765,6.809,6.809,0,0,1,6.236-4.937,7.2,7.2,0,0,1,4.144.894c.281.175.587.424.6-.2.005-.288.145-.443.449-.414s.385.24.386.5c0,.76,0,1.519,0,2.278,0,.269-.114.46-.418.467a.368.368,0,0,1-.41-.453c.071-.7-.441-.973-.914-1.268a6.251,6.251,0,0,0-8.042,1.176,6.418,6.418,0,0,0,.193,8.166,6.276,6.276,0,0,0,8.092.854C635.869,1316.772,636.284,1316.407,636.731,1316.057Z" transform="translate(-532.579 -1304.156)" fill="#386cb5"/>
      <path id="Path_15" data-name="Path 15" d="M474.273,1325.188c0,1-.02,2,.007,3,.016.6-.325,1.44.86,1.371.386-.022.278.4.295.666.023.36-.175.492-.512.491q-1.617-.007-3.235,0c-.358,0-.5-.169-.479-.517.017-.314-.058-.721.432-.669.827.088.756-.436.753-.974-.011-1.878-.008-3.756,0-5.634,0-.527.1-1.079-.734-1.021-.477.034-.442-.344-.443-.668,0-.386.252-.45.559-.452a1.183,1.183,0,0,0,.12,0c2.379-.226,2.379-.226,2.379,2.136Z" transform="translate(-415.915 -1315.992)" fill="#386cb5"/>
      <path id="Path_16" data-name="Path 16" d="M748.079,1324.846c0,1.12-.005,2.24,0,3.36,0,.609-.2,1.367.861,1.287a.238.238,0,0,1,.264.3c-.021.085-.142.208-.218.209-.516,0-1.434.1-1.484-.057-.313-1.013-.7-.316-1.051-.12a3.42,3.42,0,0,1-5.317-3.125c-.009-1.64-.011-3.28,0-4.92,0-.521.012-.976-.723-.889-.267.031-.464-.1-.418-.425.039-.268.257-.249.45-.285,1.2-.227,1.447-.01,1.46,1.236.021,1.959-.014,3.922.1,5.875.093,1.6,1.122,2.357,2.769,2.256a2.627,2.627,0,0,0,2.538-2.526c.022-1.72,0-3.44.011-5.159,0-.551.05-1.075-.766-.97-.284.036-.451-.109-.415-.423.031-.273.242-.253.435-.29,1.215-.232,1.5-.015,1.5,1.181C748.081,1322.525,748.079,1323.686,748.079,1324.846Z" transform="translate(-620.032 -1315.554)" fill="#386cb5"/>
      <path id="Path_17" data-name="Path 17" d="M682.229,1309.153c0,1.961.007,3.922,0,5.882,0,.515-.025.984.716.9.252-.029.487.063.464.392s-.293.329-.527.331c-.72.008-1.44,0-2.159,0-.251,0-.5-.034-.5-.362s.241-.393.494-.368c.658.066.68-.339.679-.827q-.013-5.642,0-11.285c0-.574-.1-.938-.776-.859a.33.33,0,0,1-.4-.336c-.015-.331.22-.35.471-.4,1.278-.225,1.538-.016,1.54,1.282Q682.232,1306.331,682.229,1309.153Z" transform="translate(-574.637 -1301.932)" fill="#386cb5"/>
      <path id="Path_18" data-name="Path 18" d="M477.361,1306.629c-.08.788-.488,1.166-1.187,1.135a1.116,1.116,0,1,1,.1-2.229A1.062,1.062,0,0,1,477.361,1306.629Z" transform="translate(-418.876 -1304.5)" fill="#386cb5"/>
      <path id="Path_19" data-name="Path 19" d="M566.931,1325.3a5.3,5.3,0,0,0-1.842-4.012,5.194,5.194,0,0,0-6.874.495,5.4,5.4,0,0,0-.154,7.122,5.593,5.593,0,0,0,7.109.791c.475-.359.63-.6.123-1.094a.894.894,0,0,0-1.3-.177A3.688,3.688,0,0,1,558.84,1327c-.249-.551-.36-.975.537-.929,1.117.057,2.239.014,3.358.013s2.24-.025,3.358.01C566.684,1326.11,566.974,1325.976,566.931,1325.3Zm-2.672-.656c-.835-.04-1.673-.009-2.511-.009-.8,0-1.6-.026-2.391.008-.607.027-.8-.156-.574-.756a3.328,3.328,0,0,1,3.052-1.935,3,3,0,0,1,2.992,1.761C565.109,1324.347,565.079,1324.688,564.259,1324.648Z" transform="translate(-480.911 -1315.643)" fill="#386cb5"/>
      <path id="Path_20" data-name="Path 20" d="M381.555,1320.446a5.185,5.185,0,1,0,5.212,5.142A5.194,5.194,0,0,0,381.555,1320.446Zm.048,8.607a3.441,3.441,0,1,1,3.447-3.436A3.489,3.489,0,0,1,381.6,1329.052Z" transform="translate(-343.941 -1315.815)" fill="#386cb5"/>
      <path id="Path_21" data-name="Path 21" d="M791.5,1315.179c-.869.062-.809-.519-.808-1.105q.013-5.7,0-11.4c0-1.449-.1-1.53-1.571-1.354-.224.027-.513-.045-.559.292-.057.428.267.455.543.419.723-.095.855.257.838.894-.039,1.472-.012,2.946-.012,4.663-1.141-1.339-1.862-1.794-2.923-1.943-3.061-.429-5.337,1.946-5.143,5.368.182,3.216,2.062,5.162,4.79,4.96a4.41,4.41,0,0,0,3.219-1.849c.034.253.052.331.054.411.033,1.239.24,1.407,1.47,1.2.185-.031.424.011.42-.281A.273.273,0,0,0,791.5,1315.179Zm-1.746-2.914a3.492,3.492,0,0,1-6.914-.029,12.879,12.879,0,0,1-.186-1.3,5.538,5.538,0,0,1,.622-2.667,3.375,3.375,0,0,1,6.073.038A5.411,5.411,0,0,1,789.757,1312.264Z" transform="translate(-651.826 -1301.25)" fill="#386cb5"/>
      <path id="Path_22" data-name="Path 22" d="M701.343,1319.141c-2.683-.043-4.719,2.143-4.744,5.094-.026,3.087,1.886,5.279,4.632,5.312,2.7.032,4.728-2.129,4.756-5.078C706.017,1321.414,704.074,1319.185,701.343,1319.141Zm-.01,9.683c-2.338.015-4.005-1.851-3.973-4.443.032-2.558,1.664-4.357,3.948-4.354,2.263,0,3.89,1.829,3.912,4.389C705.242,1326.951,703.6,1328.809,701.333,1328.823Z" transform="translate(-587.078 -1314.824)" fill="#386cb5"/>
    </g>
  </g>
</svg>
