<svg xmlns="http://www.w3.org/2000/svg" width="20" height="16" viewBox="0 0 20 16">
  <g id="email" transform="translate(0 -61)">
    <g id="Group_11338" data-name="Group 11338" transform="translate(0 61)">
      <path id="Path_1838" data-name="Path 1838" d="M18.242,61H1.758A1.807,1.807,0,0,0,0,62.846V75.154A1.807,1.807,0,0,0,1.758,77H18.242A1.806,1.806,0,0,0,20,75.154V62.846A1.807,1.807,0,0,0,18.242,61ZM18,62.231l-7.962,8.362L2.006,62.231ZM1.172,74.9V63.1l5.644,5.877Zm.829.87,5.647-5.931L9.627,71.9a.566.566,0,0,0,.827,0l1.929-2.026L18,75.769Zm16.828-.87L13.211,69l5.617-5.9Z" transform="translate(0 -61)" fill="#aaa"/>
    </g>
  </g>
</svg>
