<svg xmlns="http://www.w3.org/2000/svg" width="20" height="12" viewBox="0 0 20 12">
  <g id="eye_1_" data-name="eye (1)" transform="translate(0 -98.725)">
    <path id="Path_1908" data-name="Path 1908" d="M10,98.725c-3.821,0-7.286,2.1-9.844,5.522a.8.8,0,0,0,0,.951c2.557,3.422,6.022,5.526,9.844,5.526s7.286-2.1,9.844-5.522a.8.8,0,0,0,0-.951C17.286,100.829,13.821,98.725,10,98.725Zm.274,10.225A4.234,4.234,0,1,1,14.2,105,4.223,4.223,0,0,1,10.274,108.95ZM10.147,107a2.28,2.28,0,1,1,2.115-2.129A2.269,2.269,0,0,1,10.147,107Z" transform="translate(0 0)" fill="#aaa"/>
  </g>
</svg>
