<svg xmlns="http://www.w3.org/2000/svg" width="24" height="14" viewBox="0 0 24 14">
  <g id="Group_12210" data-name="Group 12210" transform="translate(657 -3877)">
    <path id="Path_2136" data-name="Path 2136" d="M128.9,39.545a2.966,2.966,0,0,1-2.509-1.379,4.373,4.373,0,0,0,.471-3.675,2.944,2.944,0,1,1,2.038,5.054Z" transform="translate(-767.682 3844.756)" fill="#fff"/>
    <path id="Path_2137" data-name="Path 2137" d="M197.57,16.1h-3.1c.006-.063.009-.127.009-.191V15.43a3.853,3.853,0,0,0-1.982-3.285l-.059-.033c-.265-.135-.537-.264-.807-.383l-.067-.034c-.181-.083-.331-.151-.471-.213a7.825,7.825,0,0,1,1.655-.165h.262a8.3,8.3,0,0,1,1.125.072,6.917,6.917,0,0,1,.937.193,10.2,10.2,0,0,1,1.555.6l.032.018c.222.1.445.2.661.312a3.414,3.414,0,0,1,.539.415,2.734,2.734,0,0,1,.416.5,2.215,2.215,0,0,1,.363,1.217v.389A1.068,1.068,0,0,1,197.57,16.1Z" transform="translate(-831.641 3873.798)" fill="#fff"/>
    <path id="Path_2134" data-name="Path 2134" d="M2.959,39.545a2.929,2.929,0,1,1,2.079-5.016,4.362,4.362,0,0,0,.457,3.594,2.964,2.964,0,0,1-2.535,1.421Z" transform="translate(-654.225 3844.756)" fill="#fff"/>
    <path id="Path_2135" data-name="Path 2135" d="M4.233,16.1H1.071A1.068,1.068,0,0,1,0,15.034v-.389a2.386,2.386,0,0,1,1.318-2.13c.217-.111.44-.216.661-.312l.032-.018a10.2,10.2,0,0,1,1.555-.6,6.916,6.916,0,0,1,.937-.193,8.3,8.3,0,0,1,1.125-.072h.262a7.8,7.8,0,0,1,1.7.174c-.133.059-.277.123-.451.2l-.066.033c-.271.119-.543.248-.807.383a3.709,3.709,0,0,0-2.04,3.318V15.9c0,.063,0,.128.009.191h0Z" transform="translate(-657 3873.798)" fill="#fff"/>
    <path id="Path_2133" data-name="Path 2133" d="M0,3.583a3.616,3.616,0,0,1,7.232,0A3.616,3.616,0,0,1,0,3.583Z" transform="translate(-648.616 3877)" fill="#fff"/>
    <path id="Path_2132" data-name="Path 2132" d="M5.958,5.839H1.309A1.3,1.3,0,0,1,0,4.541V4.066a2.916,2.916,0,0,1,1.611-2.6c.245-.125.516-.254.808-.382a.331.331,0,0,1,.04-.022A9.5,9.5,0,0,1,6.88,0H7.2a9.5,9.5,0,0,1,4.422,1.06.331.331,0,0,1,.04.022c.292.128.563.257.808.382a3.09,3.09,0,0,1,1.611,2.6v.475a1.3,1.3,0,0,1-1.309,1.3Z" transform="translate(-652.008 3885.161)" fill="#fff"/>
  </g>
</svg>
