<svg xmlns="http://www.w3.org/2000/svg" xmlns:xlink="http://www.w3.org/1999/xlink" width="403" height="103.377" viewBox="0 0 403 103.377">
  <defs>
    <filter id="Union_11" x="0" y="0" width="403" height="103.377" filterUnits="userSpaceOnUse">
      <feOffset dx="1" dy="1" input="SourceAlpha"/>
      <feGaussianBlur stdDeviation="0.5" result="blur"/>
      <feFlood flood-opacity="0.149"/>
      <feComposite operator="in" in2="blur"/>
      <feComposite in="SourceGraphic"/>
    </filter>
  </defs>
  <g id="Logo" transform="translate(-163.5 -456.5)">
    <g transform="matrix(1, 0, 0, 1, 163.5, 456.5)" filter="url(#Union_11)">
      <path id="Union_11-2" data-name="Union 11" d="M126.885,100.377c-.308,0-.606,0-.885,0H111.394c-19.893-.006-47.029-.015-63.862,0H43.2a37.732,37.732,0,0,1-16.534-4.091q-1.605-.815-3.191-1.792l-.428-.267c-.054-.034-.11-.069-.162-.1h0C10.815,86.436,0,71.712,0,50.141,0,14.165,31.795,0,49.216,0c29.256,0,37.49,20.515,43.7,42.738,9.262-9.734,19.312-16.913,31.644-16.913,12.224,0,36.412,9.4,36.412,37.213,0,17.29-11.289,28.519-20.639,33.8,0,0,0,0,0,0s0,0,0,0l-.048.027c-.713.377-1.893,1.035-3.366,1.688-.807.353-1.583.656-2.317.907l-.056.02c-.131.044-.261.086-.389.127a19.591,19.591,0,0,1-2.68.655c-.054.007-.109.017-.16.024l-.08.011-.052.006c-.356.039-.821.061-1.344.071Zm8.781-2.774h-.027c-31.088-1.207-35.553-29.176-42.728-54.863h0c7.174,25.687,11.639,53.656,42.728,54.863h.027ZM27.1,94.863q1.273.143,2.514.19-1.24-.048-2.512-.19c-.73-.082-2.493-.424-3.493-.615C24.61,94.439,26.371,94.781,27.1,94.863Zm288.3.229q-5.218-5.216-5.217-15.309V51.362H319.8V79.783q0,5.7,2.505,8.547t7.243,2.85a9.044,9.044,0,0,0,7.173-2.85q2.506-2.847,2.505-8.547V51.362h9.611V79.783a23.621,23.621,0,0,1-2.505,11.362,16.138,16.138,0,0,1-6.933,6.9,21.762,21.762,0,0,1-10.058,2.266Q320.619,100.311,315.4,95.092ZM271.3,99.54A24.438,24.438,0,1,1,298.4,63.425q.241.406.463.817c.18.392.461.98.461.98l-4.7,1.525s-.3-.549-.459-.82a19.521,19.521,0,1,0,1.348,17.133l-3.556-.234,3.3-4.4,3.3-4.4,2.692,4.792,2.691,4.793-3.319-.218A24.42,24.42,0,0,1,271.3,99.54Zm-91.931-2.323a21.074,21.074,0,0,1-8.159-8.669A27.067,27.067,0,0,1,168.32,75.9a27.218,27.218,0,0,1,2.889-12.714,21.134,21.134,0,0,1,8.125-8.669A23.471,23.471,0,0,1,191.5,51.427q8.975,0,14.89,4.623a21.866,21.866,0,0,1,7.819,12.578H204.149a13.174,13.174,0,0,0-4.861-6.118,13.738,13.738,0,0,0-7.921-2.243,12.517,12.517,0,0,0-11.626,7.342,18.952,18.952,0,0,0-1.7,8.295,18.779,18.779,0,0,0,1.7,8.226,12.52,12.52,0,0,0,11.626,7.343,13.744,13.744,0,0,0,7.921-2.243,13.179,13.179,0,0,0,4.861-6.12h10.062a21.863,21.863,0,0,1-7.819,12.579q-5.915,4.624-14.89,4.623A23.52,23.52,0,0,1,179.367,97.217Zm43.518,2.968V51.427h9.738v41.3h16.367v7.459Zm134.228-.066V51.362h17.333a29.314,29.314,0,0,1,13.71,3,20.788,20.788,0,0,1,8.805,8.5A26.042,26.042,0,0,1,400,75.671a26.093,26.093,0,0,1-3.039,12.777,21.145,21.145,0,0,1-8.805,8.6,28.761,28.761,0,0,1-13.71,3.073Zm9.737-8.7h6.768q7.873,0,12.189-4.144t4.317-11.6q0-7.526-4.317-11.671t-12.189-4.143H366.85ZM274.647,79.2l.095-.095h-.094V64.138h4.209V77.462l5.8,5.8-2.977,2.977Zm58.7-42.766a9.235,9.235,0,0,1-3.669-3.746,11.856,11.856,0,0,1-1.325-5.744,11.971,11.971,0,0,1,1.325-5.763,9.215,9.215,0,0,1,3.669-3.765,10.874,10.874,0,0,1,5.379-1.307,10.633,10.633,0,0,1,5.36,1.307,9,9,0,0,1,3.5,3.5,9.84,9.84,0,0,1,1.21,4.841,10.422,10.422,0,0,1-.154,1.921H331.777a7.394,7.394,0,0,0,2.055,5.417,6.705,6.705,0,0,0,4.745,1.806,6.857,6.857,0,0,0,4.246-1.287,5.321,5.321,0,0,0,2.094-3.439h3.727a8.8,8.8,0,0,1-5.148,6.608,11.386,11.386,0,0,1-4.764.961A10.857,10.857,0,0,1,333.352,36.439Zm.538-15.7a7.2,7.2,0,0,0-2.113,5.245h13.486a7.178,7.178,0,0,0-.768-3.92,5.631,5.631,0,0,0-2.421-2.344,7.379,7.379,0,0,0-3.342-.767A6.918,6.918,0,0,0,333.89,20.743Zm-33.5,15.7a9.232,9.232,0,0,1-3.67-3.746,11.862,11.862,0,0,1-1.325-5.744,11.98,11.98,0,0,1,1.325-5.764,9.21,9.21,0,0,1,3.67-3.764,10.865,10.865,0,0,1,5.379-1.307,10.268,10.268,0,0,1,6.686,2.152,9.114,9.114,0,0,1,3.265,5.762h-3.688a5.4,5.4,0,0,0-2.094-3.553,7.406,7.406,0,0,0-7.607-.443,6.15,6.15,0,0,0-2.44,2.594,9.185,9.185,0,0,0-.922,4.322,9.19,9.19,0,0,0,.922,4.322,6.141,6.141,0,0,0,2.44,2.593,7.352,7.352,0,0,0,7.607-.461,5.464,5.464,0,0,0,2.094-3.572h3.688a9.063,9.063,0,0,1-3.265,5.782,10.327,10.327,0,0,1-6.686,2.132A10.856,10.856,0,0,1,300.386,36.439Zm-58.341,0a9.507,9.507,0,0,1-3.785-3.746,11.455,11.455,0,0,1-1.383-5.744,11.565,11.565,0,0,1,1.383-5.763,9.484,9.484,0,0,1,3.785-3.765,11.963,11.963,0,0,1,10.873,0,9.35,9.35,0,0,1,3.765,3.765,11.7,11.7,0,0,1,1.364,5.763,11.586,11.586,0,0,1-1.364,5.744,9.372,9.372,0,0,1-3.765,3.746,11.963,11.963,0,0,1-10.873,0ZM244,20.032a6.353,6.353,0,0,0-2.574,2.594,8.731,8.731,0,0,0-.98,4.322,8.643,8.643,0,0,0,.98,4.284A6.348,6.348,0,0,0,244,33.826a7.574,7.574,0,0,0,6.954,0,6.36,6.36,0,0,0,2.575-2.594,8.652,8.652,0,0,0,.979-4.284,8.741,8.741,0,0,0-.979-4.322,6.365,6.365,0,0,0-2.575-2.594,7.574,7.574,0,0,0-6.954,0ZM174.4,35.958a12.054,12.054,0,0,1-4.553-4.879,15.191,15.191,0,0,1-1.631-7.127,15.391,15.391,0,0,1,1.631-7.185,12.024,12.024,0,0,1,4.553-4.9,12.843,12.843,0,0,1,6.724-1.748,13.192,13.192,0,0,1,8.184,2.44,12.444,12.444,0,0,1,4.457,6.667h-3.688a9.04,9.04,0,0,0-3.342-4.285,9.7,9.7,0,0,0-5.649-1.595,8.692,8.692,0,0,0-8.048,4.976,12.36,12.36,0,0,0-1.21,5.629,12.148,12.148,0,0,0,1.21,5.571,8.72,8.72,0,0,0,8.048,4.956,9.69,9.69,0,0,0,5.649-1.594,9.036,9.036,0,0,0,3.342-4.285h3.688a12.441,12.441,0,0,1-4.457,6.667,13.192,13.192,0,0,1-8.184,2.44A12.835,12.835,0,0,1,174.4,35.958Zm145.884,1.518V9.044h3.5V37.476Zm-32.965,0V16.382h3.5V37.476Zm-8.874,0V25.526a6.742,6.742,0,0,0-1.614-4.841,5.773,5.773,0,0,0-4.38-1.69,5.993,5.993,0,0,0-4.611,1.864,7.722,7.722,0,0,0-1.728,5.436V37.476h-3.5V16.382h3.5v5a7.185,7.185,0,0,1,2.862-3.958,8.3,8.3,0,0,1,4.745-1.383,7.876,7.876,0,0,1,5.956,2.362q2.267,2.364,2.267,6.82V37.476Zm-55.289,0V16.382h3.5v4.265a7.759,7.759,0,0,1,3.035-3.4,9.021,9.021,0,0,1,4.764-1.21v3.8h-1.076a7.469,7.469,0,0,0-4.84,1.518q-1.884,1.518-1.883,5.014v11.1Zm-8.875,0V25.526a6.746,6.746,0,0,0-1.613-4.841,5.773,5.773,0,0,0-4.381-1.69,5.993,5.993,0,0,0-4.611,1.863,7.72,7.72,0,0,0-1.729,5.437V37.476h-3.5V9.044h3.5V21.377a7.189,7.189,0,0,1,2.862-3.958,8.3,8.3,0,0,1,4.745-1.383,7.877,7.877,0,0,1,5.956,2.362q2.267,2.364,2.267,6.82V37.476Zm73.077-25.724a2,2,0,0,1-.654-1.555,2.007,2.007,0,0,1,.654-1.556,2.807,2.807,0,0,1,3.458,0,2.009,2.009,0,0,1,.653,1.556,2.005,2.005,0,0,1-.653,1.555,2.807,2.807,0,0,1-3.458,0Z" transform="translate(0.5 0.5)" fill="#ffb435"/>
    </g>
    <g id="Group_12583" data-name="Group 12583" transform="translate(164 457)">
      <path id="Path_2402" data-name="Path 2402" d="M247.776,87.166c0-27.809-24.189-37.212-36.411-37.212-12.333,0-22.382,7.178-31.644,16.912,7.174,25.687,11.639,53.657,42.727,54.864a32.857,32.857,0,0,0,4.689-.759c9.349-5.285,20.639-16.514,20.639-33.8" transform="translate(-86.809 -24.129)" fill="#ffb435"/>
      <path id="Path_2403" data-name="Path 2403" d="M92.912,42.737C86.706,20.515,78.472,0,49.217,0,31.794,0,0,14.165,0,50.142c0,21.572,10.816,36.3,22.886,43.979.019-.023,3.174.626,4.217.743C55.9,98.095,72.489,64.2,92.914,42.737" fill="#3a8fe4"/>
      <path id="Path_2404" data-name="Path 2404" d="M157.021,137.531c-31.089-1.207-35.554-29.177-42.727-54.864-20.424,21.464-37.016,55.357-65.812,52.126-1.043-.117-4.2-.766-4.217-.743.052.035.108.069.162.1l.428.267q1.587.976,3.191,1.791A37.733,37.733,0,0,0,64.579,140.3h4.333c16.833-.015,43.969-.006,63.862,0h14.606c.279,0,.577,0,.885,0h2.949c.523-.011.989-.032,1.344-.071l.052-.006.081-.011.16-.024a19.563,19.563,0,0,0,2.68-.654c.129-.041.258-.083.389-.127l.056-.02c.734-.25,1.511-.553,2.318-.907,1.472-.653,2.653-1.311,3.366-1.688l.048-.027a33.368,33.368,0,0,1-4.689.759" transform="translate(-21.381 -39.93)" fill="#3a80bc"/>
      <path id="Path_2405" data-name="Path 2405" d="M346.481,22.015a12.444,12.444,0,0,1,4.457,6.666h-3.689a9.035,9.035,0,0,0-3.342-4.284,9.692,9.692,0,0,0-5.648-1.595,8.694,8.694,0,0,0-8.049,4.976A12.361,12.361,0,0,0,329,33.407a12.148,12.148,0,0,0,1.21,5.571,8.721,8.721,0,0,0,8.049,4.956,9.688,9.688,0,0,0,5.648-1.594,9.03,9.03,0,0,0,3.342-4.284h3.689a12.437,12.437,0,0,1-4.457,6.666,13.188,13.188,0,0,1-8.184,2.44,12.835,12.835,0,0,1-6.724-1.748,12.049,12.049,0,0,1-4.553-4.879,15.19,15.19,0,0,1-1.632-7.127,15.392,15.392,0,0,1,1.632-7.185,12.022,12.022,0,0,1,4.553-4.9,12.84,12.84,0,0,1,6.724-1.748,13.191,13.191,0,0,1,8.184,2.44" transform="translate(-157.169 -9.455)"/>
      <path id="Path_2406" data-name="Path 2406" d="M400.934,26.849q2.267,2.363,2.267,6.82V45.925h-3.5V33.976a6.74,6.74,0,0,0-1.614-4.841,5.77,5.77,0,0,0-4.38-1.691,5.992,5.992,0,0,0-4.611,1.863,7.721,7.721,0,0,0-1.728,5.437V45.925h-3.5V17.494h3.5V29.827a7.184,7.184,0,0,1,2.862-3.957,8.3,8.3,0,0,1,4.745-1.383,7.876,7.876,0,0,1,5.956,2.363" transform="translate(-185.418 -8.45)"/>
      <path id="Path_2407" data-name="Path 2407" d="M438.194,32.23a9.019,9.019,0,0,1,4.765-1.21v3.8h-1.076a7.47,7.47,0,0,0-4.841,1.517q-1.883,1.518-1.883,5.014v11.1h-3.5V31.366h3.5V35.63a7.758,7.758,0,0,1,3.035-3.4" transform="translate(-208.501 -14.983)"/>
      <path id="Path_2408" data-name="Path 2408" d="M474.235,32.474A9.352,9.352,0,0,1,478,36.24,11.7,11.7,0,0,1,479.364,42,11.581,11.581,0,0,1,478,47.747a9.371,9.371,0,0,1-3.765,3.746,11.965,11.965,0,0,1-10.873,0,9.5,9.5,0,0,1-3.784-3.746A11.45,11.45,0,0,1,458.194,42a11.562,11.562,0,0,1,1.383-5.763,9.479,9.479,0,0,1,3.784-3.765,11.965,11.965,0,0,1,10.873,0m-8.913,2.613a6.352,6.352,0,0,0-2.574,2.594,8.731,8.731,0,0,0-.98,4.322,8.645,8.645,0,0,0,.98,4.284,6.349,6.349,0,0,0,2.574,2.594,7.578,7.578,0,0,0,6.954,0,6.356,6.356,0,0,0,2.575-2.594,8.652,8.652,0,0,0,.98-4.284,8.737,8.737,0,0,0-.98-4.322,6.359,6.359,0,0,0-2.575-2.594,7.574,7.574,0,0,0-6.954,0" transform="translate(-221.316 -15.055)"/>
      <path id="Path_2409" data-name="Path 2409" d="M525.046,33.383q2.267,2.363,2.267,6.82V52.459h-3.5V40.51a6.74,6.74,0,0,0-1.614-4.841,5.77,5.77,0,0,0-4.38-1.691,5.992,5.992,0,0,0-4.611,1.863,7.721,7.721,0,0,0-1.728,5.437V52.459h-3.5V31.366h3.5V36.36a7.185,7.185,0,0,1,2.862-3.957,8.3,8.3,0,0,1,4.745-1.383,7.877,7.877,0,0,1,5.956,2.363" transform="translate(-245.367 -14.983)"/>
      <path id="Path_2410" data-name="Path 2410" d="M555.237,16.157a2.809,2.809,0,0,1,3.458,0,2.18,2.18,0,0,1,0,3.112,2.807,2.807,0,0,1-3.458,0,2.18,2.18,0,0,1,0-3.112m3.458,28.836h-3.5V23.9h3.5Z" transform="translate(-267.874 -7.517)"/>
      <path id="Path_2411" data-name="Path 2411" d="M588.438,33.321a9.115,9.115,0,0,1,3.266,5.763h-3.688a5.4,5.4,0,0,0-2.094-3.554,7.405,7.405,0,0,0-7.607-.442,6.148,6.148,0,0,0-2.44,2.594A9.187,9.187,0,0,0,574.952,42a9.184,9.184,0,0,0,.922,4.322,6.138,6.138,0,0,0,2.44,2.593,7.352,7.352,0,0,0,7.607-.461,5.465,5.465,0,0,0,2.094-3.573H591.7a9.062,9.062,0,0,1-3.266,5.782,10.326,10.326,0,0,1-6.686,2.132,10.858,10.858,0,0,1-5.379-1.306,9.229,9.229,0,0,1-3.669-3.746A11.854,11.854,0,0,1,571.379,42a11.968,11.968,0,0,1,1.325-5.763,9.21,9.21,0,0,1,3.669-3.765,10.863,10.863,0,0,1,5.379-1.306,10.268,10.268,0,0,1,6.686,2.152" transform="translate(-275.987 -15.055)"/>
      <rect id="Rectangle_2690" data-name="Rectangle 2690" width="3.497" height="28.432" transform="translate(320.288 9.044)"/>
      <path id="Path_2412" data-name="Path 2412" d="M655.431,42.733H638.564a7.393,7.393,0,0,0,2.055,5.417,6.705,6.705,0,0,0,4.745,1.805,6.858,6.858,0,0,0,4.246-1.287A5.323,5.323,0,0,0,651.7,45.23h3.727a8.806,8.806,0,0,1-5.149,6.609,11.385,11.385,0,0,1-4.764.961,10.859,10.859,0,0,1-5.379-1.306,9.23,9.23,0,0,1-3.669-3.746A11.857,11.857,0,0,1,635.144,42a11.971,11.971,0,0,1,1.325-5.763,9.21,9.21,0,0,1,3.669-3.766,10.87,10.87,0,0,1,5.379-1.306,10.631,10.631,0,0,1,5.36,1.306,9,9,0,0,1,3.5,3.5,9.841,9.841,0,0,1,1.21,4.841,10.443,10.443,0,0,1-.153,1.921m-4.149-5.61a5.628,5.628,0,0,0-2.421-2.344,7.373,7.373,0,0,0-3.342-.768,6.92,6.92,0,0,0-4.841,1.787,7.2,7.2,0,0,0-2.113,5.245H652.05a7.18,7.18,0,0,0-.768-3.919" transform="translate(-306.787 -15.055)"/>
      <path id="Path_2413" data-name="Path 2413" d="M363.655,104.1a21.866,21.866,0,0,1,7.819,12.578H361.411a13.169,13.169,0,0,0-4.861-6.118,13.741,13.741,0,0,0-7.921-2.244A12.518,12.518,0,0,0,337,115.656a20.92,20.92,0,0,0,0,16.521,12.517,12.517,0,0,0,11.626,7.343,13.744,13.744,0,0,0,7.921-2.244,13.172,13.172,0,0,0,4.861-6.119h10.062a21.866,21.866,0,0,1-7.819,12.579q-5.915,4.624-14.89,4.623a23.516,23.516,0,0,1-12.135-3.093,21.067,21.067,0,0,1-8.159-8.669,29.272,29.272,0,0,1,0-25.36,21.14,21.14,0,0,1,8.126-8.669,23.471,23.471,0,0,1,12.169-3.093q8.975,0,14.89,4.623" transform="translate(-157.262 -48.048)" fill="#0974dd"/>
      <path id="Path_2414" data-name="Path 2414" d="M440.867,140.774h16.368v7.459H431.13V99.475h9.737Z" transform="translate(-208.244 -48.049)" fill="#0974dd"/>
      <path id="Path_2415" data-name="Path 2415" d="M609.6,99.349v28.422q0,5.7,2.506,8.547t7.243,2.85a9.047,9.047,0,0,0,7.174-2.85q2.505-2.848,2.505-8.547V99.349h9.611v28.422a23.616,23.616,0,0,1-2.506,11.362,16.137,16.137,0,0,1-6.933,6.9,21.767,21.767,0,0,1-10.058,2.266q-8.719,0-13.936-5.218t-5.218-15.309V99.349Z" transform="translate(-289.807 -47.987)" fill="#0974dd"/>
      <path id="Path_2416" data-name="Path 2416" d="M730.614,136.435a21.147,21.147,0,0,1-8.8,8.6,28.762,28.762,0,0,1-13.709,3.073H690.766V99.349H708.1a29.315,29.315,0,0,1,13.709,3,20.785,20.785,0,0,1,8.8,8.495,28.452,28.452,0,0,1,0,25.588m-11.153-1.174q4.314-4.144,4.316-11.6,0-7.526-4.316-11.671t-12.19-4.144H700.5V139.4h6.768q7.873,0,12.19-4.144" transform="translate(-333.653 -47.987)" fill="#0974dd"/>
      <path id="Path_2417" data-name="Path 2417" d="M526.13,144.949a24.342,24.342,0,0,0,10.805-13.506l3.32.218-2.692-4.792-2.691-4.792-3.3,4.4-3.3,4.4,3.556.234a19.524,19.524,0,1,1-1.349-17.132c.16.271.459.819.459.819l4.7-1.525s-.281-.588-.461-.981q-.223-.411-.463-.817a24.438,24.438,0,1,0-8.589,33.477" transform="translate(-236.314 -48.048)" fill="#0974dd"/>
      <rect id="Rectangle_2691" data-name="Rectangle 2691" width="4.209" height="14.972" transform="translate(274.648 64.138)" fill="#0974dd"/>
      <rect id="Rectangle_2692" data-name="Rectangle 2692" width="4.209" height="9.95" transform="translate(274.648 79.205) rotate(-45)" fill="#0974dd"/>
    </g>
  </g>
</svg>
