<svg xmlns="http://www.w3.org/2000/svg" width="16" height="20" viewBox="0 0 16 20">
  <g id="padlock" transform="translate(-3)">
    <path id="Path_1819" data-name="Path 1819" d="M17,21.174H5a1.921,1.921,0,0,1-2-1.826V10.826A1.921,1.921,0,0,1,5,9H17a1.921,1.921,0,0,1,2,1.826v8.522A1.921,1.921,0,0,1,17,21.174ZM5,10.217a.64.64,0,0,0-.667.609v8.522A.64.64,0,0,0,5,19.957H17a.64.64,0,0,0,.667-.609V10.826A.64.64,0,0,0,17,10.217Z" transform="translate(0 -1.174)" fill="#aaa"/>
    <path id="Path_1820" data-name="Path 1820" d="M16,8.7a.645.645,0,0,1-.667-.621V4.969a3.875,3.875,0,0,0-4-3.727,3.875,3.875,0,0,0-4,3.727V8.075A.668.668,0,0,1,6,8.075V4.969A5.166,5.166,0,0,1,11.333,0a5.166,5.166,0,0,1,5.333,4.969V8.075A.645.645,0,0,1,16,8.7Z" transform="translate(-0.333)" fill="#aaa"/>
    <path id="Path_1821" data-name="Path 1821" d="M11.778,16.478a1.74,1.74,0,1,1,1.778-1.739A1.761,1.761,0,0,1,11.778,16.478Zm0-2.174a.435.435,0,1,0,.444.435A.44.44,0,0,0,11.778,14.3Z" transform="translate(-0.778 -1.696)" fill="#aaa"/>
    <path id="Path_1822" data-name="Path 1822" d="M11.917,19.446a.66.66,0,0,1-.667-.652V16.4a.667.667,0,0,1,1.333,0v2.391A.66.66,0,0,1,11.917,19.446Z" transform="translate(-0.917 -2.054)" fill="#aaa"/>
  </g>
</svg>
