<svg xmlns="http://www.w3.org/2000/svg" width="22" height="24" viewBox="0 0 22 24">
  <path id="teacher-11" d="M97.464,75.622l5.465,11.1H95.688a2.933,2.933,0,0,1-2.075-.9,3.118,3.118,0,0,1-.877-2.134V78.658a3.1,3.1,0,0,1,.877-2.134,2.95,2.95,0,0,1,2.075-.9h1.776ZM99.8,64.38a5.324,5.324,0,0,1,7.725,0,5.732,5.732,0,0,1,1.6,3.96,5.864,5.864,0,0,1-.739,2.822,5.381,5.381,0,0,1-2.006,2.04,5.251,5.251,0,0,1-5.441,0,5.356,5.356,0,0,1-2.005-2.04A5.863,5.863,0,0,1,98.2,68.34,5.732,5.732,0,0,1,99.8,64.38Zm6.378,14.444-2.513,5.455-2.513-5.455,2.513-2.982Zm7.563-2.3a3.45,3.45,0,0,1,.992,2.134v5.027a3.018,3.018,0,0,1-2.952,3.036h-7.241l5.327-11.1h1.776A3.031,3.031,0,0,1,113.744,76.522Z" transform="translate(-92.736 -62.72)" fill="#fff"/>
</svg>
